<svg xmlns="http://www.w3.org/2000/svg" width="1600" height="900" role="img" aria-label="HawkinsOps MODERNIZE homepage desktop mockup with proof-first hero and featured projects">
  <rect width="1600" height="900" fill="#FAFAFA"/>
  <rect x="0" y="0" width="1600" height="78" fill="#FFFFFF"/>
  <text x="60" y="48" fill="#111827" font-family="Inter, Arial, sans-serif" font-size="28" font-weight="700">HawkinsOps</text>
  <text x="980" y="48" fill="#3F3F46" font-family="Inter, Arial, sans-serif" font-size="18">Home Projects AutoSOC Detections Lab Resume Proof</text>
  <rect x="60" y="120" width="1480" height="310" rx="18" fill="#ECFDF5"/>
  <text x="96" y="190" fill="#0F766E" font-family="Source Code Pro, monospace" font-size="16">EVIDENCE-FIRST SOC ENGINEERING</text>
  <text x="96" y="250" fill="#111827" font-family="Inter, Arial, sans-serif" font-size="52" font-weight="700">Practical SOC engineering that scales</text>
  <text x="96" y="300" fill="#52525B" font-family="Inter, Arial, sans-serif" font-size="24">AutoSOC, detections, and proof translated into recruiter-readable outcomes.</text>
  <rect x="96" y="338" width="196" height="50" rx="10" fill="#0F766E"/>
  <text x="128" y="370" fill="#FFFFFF" font-family="Inter, Arial, sans-serif" font-size="18" font-weight="600">View AutoSOC</text>
  <rect x="308" y="338" width="176" height="50" rx="10" fill="#FFF7ED" stroke="#F97316"/>
  <text x="350" y="370" fill="#111827" font-family="Inter, Arial, sans-serif" font-size="18" font-weight="600">Run Demo</text>
  <rect x="1010" y="160" width="450" height="220" rx="16" fill="#FFFFFF" stroke="#D4D4D8"/>
  <text x="1040" y="198" fill="#71717A" font-family="Source Code Pro, monospace" font-size="16">AUTOSOC WORKFLOW SNAPSHOT</text>
  <rect x="1040" y="270" width="90" height="90" rx="16" fill="#CCFBF1"/>
  <rect x="1175" y="270" width="90" height="90" rx="16" fill="#99F6E4"/>
  <rect x="1310" y="270" width="90" height="90" rx="16" fill="#5EEAD4"/>
  <rect x="60" y="530" width="460" height="180" rx="16" fill="#FFFFFF" stroke="#E4E4E7"/>
  <rect x="570" y="530" width="460" height="180" rx="16" fill="#FFFFFF" stroke="#E4E4E7"/>
  <rect x="1080" y="530" width="460" height="180" rx="16" fill="#FFFFFF" stroke="#E4E4E7"/>
  <text x="90" y="615" fill="#111827" font-family="Inter, Arial, sans-serif" font-size="28" font-weight="700">AutoSOC case study</text>
  <text x="600" y="615" fill="#111827" font-family="Inter, Arial, sans-serif" font-size="28" font-weight="700">Proof pack</text>
  <text x="1110" y="615" fill="#111827" font-family="Inter, Arial, sans-serif" font-size="28" font-weight="700">Resume and fit</text>
  <rect x="60" y="760" width="1480" height="96" rx="16" fill="#111827"/>
</svg>
